<mxfile host="Electron" agent="Mozilla/5.0 (Windows NT 10.0; Win64; x64) AppleWebKit/537.36 (KHTML, like Gecko) draw.io/26.0.16 Chrome/132.0.6834.196 Electron/34.2.0 Safari/537.36" version="26.0.16">
  <diagram name="Página-1" id="QBLSmcQLm4kzrNoQEjrX">
    <mxGraphModel dx="1120" dy="532" grid="1" gridSize="10" guides="1" tooltips="1" connect="1" arrows="1" fold="1" page="1" pageScale="1" pageWidth="827" pageHeight="1169" math="0" shadow="0">
      <root>
        <mxCell id="0" />
        <mxCell id="1" parent="0" />
        <mxCell id="ywdPWlTBc8RAjWMrtMLr-1" value="" style="rounded=0;whiteSpace=wrap;html=1;" vertex="1" parent="1">
          <mxGeometry x="165" y="1030" width="575" height="540" as="geometry" />
        </mxCell>
        <mxCell id="ywdPWlTBc8RAjWMrtMLr-2" style="edgeStyle=orthogonalEdgeStyle;rounded=0;orthogonalLoop=1;jettySize=auto;html=1;entryX=0;entryY=0.5;entryDx=0;entryDy=0;" edge="1" parent="1" source="ywdPWlTBc8RAjWMrtMLr-5" target="ywdPWlTBc8RAjWMrtMLr-6">
          <mxGeometry relative="1" as="geometry" />
        </mxCell>
        <mxCell id="ywdPWlTBc8RAjWMrtMLr-3" style="edgeStyle=orthogonalEdgeStyle;rounded=0;orthogonalLoop=1;jettySize=auto;html=1;entryX=0;entryY=0.5;entryDx=0;entryDy=0;" edge="1" parent="1" source="ywdPWlTBc8RAjWMrtMLr-5" target="ywdPWlTBc8RAjWMrtMLr-8">
          <mxGeometry relative="1" as="geometry" />
        </mxCell>
        <mxCell id="ywdPWlTBc8RAjWMrtMLr-4" style="edgeStyle=orthogonalEdgeStyle;rounded=0;orthogonalLoop=1;jettySize=auto;html=1;exitX=0.5;exitY=0;exitDx=0;exitDy=0;exitPerimeter=0;" edge="1" parent="1" source="ywdPWlTBc8RAjWMrtMLr-5" target="ywdPWlTBc8RAjWMrtMLr-15">
          <mxGeometry relative="1" as="geometry">
            <Array as="points">
              <mxPoint x="115" y="1105" />
            </Array>
          </mxGeometry>
        </mxCell>
        <mxCell id="ywdPWlTBc8RAjWMrtMLr-5" value="Paciente" style="shape=umlActor;verticalLabelPosition=bottom;verticalAlign=top;html=1;outlineConnect=0;" vertex="1" parent="1">
          <mxGeometry x="100" y="1325" width="30" height="60" as="geometry" />
        </mxCell>
        <mxCell id="ywdPWlTBc8RAjWMrtMLr-6" value="Se logar no sistema" style="ellipse;whiteSpace=wrap;html=1;" vertex="1" parent="1">
          <mxGeometry x="228.5" y="1265" width="120" height="60" as="geometry" />
        </mxCell>
        <mxCell id="ywdPWlTBc8RAjWMrtMLr-7" value="Sistema HelpPsico" style="text;html=1;align=center;verticalAlign=middle;whiteSpace=wrap;rounded=0;" vertex="1" parent="1">
          <mxGeometry x="395.5" y="1035" width="114" height="30" as="geometry" />
        </mxCell>
        <mxCell id="ywdPWlTBc8RAjWMrtMLr-8" value="Acompanhar sua sessão&amp;nbsp;" style="ellipse;whiteSpace=wrap;html=1;" vertex="1" parent="1">
          <mxGeometry x="228.5" y="1375" width="120" height="60" as="geometry" />
        </mxCell>
        <mxCell id="ywdPWlTBc8RAjWMrtMLr-9" value="Visualizar notificações" style="ellipse;whiteSpace=wrap;html=1;" vertex="1" parent="1">
          <mxGeometry x="462.5" y="1190" width="120" height="60" as="geometry" />
        </mxCell>
        <mxCell id="ywdPWlTBc8RAjWMrtMLr-10" value="Acompanhar situação do vínculo" style="ellipse;whiteSpace=wrap;html=1;" vertex="1" parent="1">
          <mxGeometry x="508.5" y="1265" width="120" height="60" as="geometry" />
        </mxCell>
        <mxCell id="ywdPWlTBc8RAjWMrtMLr-11" value="&amp;lt;&amp;lt;extend&amp;gt;&amp;gt;" style="html=1;verticalAlign=bottom;labelBackgroundColor=none;endArrow=open;endFill=0;dashed=1;rounded=0;exitX=1;exitY=0;exitDx=0;exitDy=0;entryX=0.208;entryY=0.895;entryDx=0;entryDy=0;entryPerimeter=0;" edge="1" parent="1" source="ywdPWlTBc8RAjWMrtMLr-8" target="ywdPWlTBc8RAjWMrtMLr-9">
          <mxGeometry width="160" relative="1" as="geometry">
            <mxPoint x="300" y="1385" as="sourcePoint" />
            <mxPoint x="460" y="1385" as="targetPoint" />
          </mxGeometry>
        </mxCell>
        <mxCell id="ywdPWlTBc8RAjWMrtMLr-12" value="&amp;lt;&amp;lt;extend&amp;gt;&amp;gt;" style="html=1;verticalAlign=bottom;labelBackgroundColor=none;endArrow=open;endFill=0;dashed=1;rounded=0;exitX=1;exitY=0.5;exitDx=0;exitDy=0;entryX=0.071;entryY=0.718;entryDx=0;entryDy=0;entryPerimeter=0;" edge="1" parent="1" source="ywdPWlTBc8RAjWMrtMLr-8" target="ywdPWlTBc8RAjWMrtMLr-10">
          <mxGeometry width="160" relative="1" as="geometry">
            <mxPoint x="370" y="1355" as="sourcePoint" />
            <mxPoint x="540" y="1305" as="targetPoint" />
          </mxGeometry>
        </mxCell>
        <mxCell id="ywdPWlTBc8RAjWMrtMLr-13" value="Se desvincular do psicólogo" style="ellipse;whiteSpace=wrap;html=1;" vertex="1" parent="1">
          <mxGeometry x="528.5" y="1342.5" width="120" height="60" as="geometry" />
        </mxCell>
        <mxCell id="ywdPWlTBc8RAjWMrtMLr-14" value="&amp;lt;&amp;lt;extend&amp;gt;&amp;gt;" style="html=1;verticalAlign=bottom;labelBackgroundColor=none;endArrow=open;endFill=0;dashed=1;rounded=0;exitX=0.998;exitY=0.658;exitDx=0;exitDy=0;entryX=0;entryY=0.5;entryDx=0;entryDy=0;exitPerimeter=0;" edge="1" parent="1" source="ywdPWlTBc8RAjWMrtMLr-8" target="ywdPWlTBc8RAjWMrtMLr-13">
          <mxGeometry width="160" relative="1" as="geometry">
            <mxPoint x="370" y="1415" as="sourcePoint" />
            <mxPoint x="512" y="1335" as="targetPoint" />
          </mxGeometry>
        </mxCell>
        <mxCell id="ywdPWlTBc8RAjWMrtMLr-15" value="Se deslogar do sistema" style="ellipse;whiteSpace=wrap;html=1;" vertex="1" parent="1">
          <mxGeometry x="392.5" y="1067.5" width="120" height="60" as="geometry" />
        </mxCell>
        <mxCell id="ywdPWlTBc8RAjWMrtMLr-16" value="Solicitar documentos" style="ellipse;whiteSpace=wrap;html=1;" vertex="1" parent="1">
          <mxGeometry x="528.5" y="1412.5" width="120" height="60" as="geometry" />
        </mxCell>
        <mxCell id="ywdPWlTBc8RAjWMrtMLr-17" value="&amp;lt;&amp;lt;extend&amp;gt;&amp;gt;" style="html=1;verticalAlign=bottom;labelBackgroundColor=none;endArrow=open;endFill=0;dashed=1;rounded=0;exitX=1;exitY=1;exitDx=0;exitDy=0;entryX=0;entryY=0.5;entryDx=0;entryDy=0;" edge="1" parent="1" source="ywdPWlTBc8RAjWMrtMLr-8" target="ywdPWlTBc8RAjWMrtMLr-16">
          <mxGeometry width="160" relative="1" as="geometry">
            <mxPoint x="364" y="1411" as="sourcePoint" />
            <mxPoint x="550" y="1365" as="targetPoint" />
          </mxGeometry>
        </mxCell>
        <mxCell id="ywdPWlTBc8RAjWMrtMLr-18" value="Avaliar psicólogo" style="ellipse;whiteSpace=wrap;html=1;" vertex="1" parent="1">
          <mxGeometry x="500" y="1490" width="120" height="60" as="geometry" />
        </mxCell>
        <mxCell id="ywdPWlTBc8RAjWMrtMLr-19" value="&amp;lt;&amp;lt;extend&amp;gt;&amp;gt;" style="html=1;verticalAlign=bottom;labelBackgroundColor=none;endArrow=open;endFill=0;dashed=1;rounded=0;exitX=0.734;exitY=0.988;exitDx=0;exitDy=0;entryX=0;entryY=0.5;entryDx=0;entryDy=0;exitPerimeter=0;" edge="1" parent="1" source="ywdPWlTBc8RAjWMrtMLr-8" target="ywdPWlTBc8RAjWMrtMLr-18">
          <mxGeometry width="160" relative="1" as="geometry">
            <mxPoint x="341" y="1436" as="sourcePoint" />
            <mxPoint x="539" y="1453" as="targetPoint" />
          </mxGeometry>
        </mxCell>
        <mxCell id="ywdPWlTBc8RAjWMrtMLr-20" value="" style="rounded=0;whiteSpace=wrap;html=1;" vertex="1" parent="1">
          <mxGeometry x="1054" y="1035" width="446" height="490" as="geometry" />
        </mxCell>
        <mxCell id="ywdPWlTBc8RAjWMrtMLr-21" style="edgeStyle=orthogonalEdgeStyle;rounded=0;orthogonalLoop=1;jettySize=auto;html=1;entryX=0;entryY=0.5;entryDx=0;entryDy=0;" edge="1" parent="1" source="ywdPWlTBc8RAjWMrtMLr-25" target="ywdPWlTBc8RAjWMrtMLr-27">
          <mxGeometry relative="1" as="geometry" />
        </mxCell>
        <mxCell id="ywdPWlTBc8RAjWMrtMLr-22" style="edgeStyle=orthogonalEdgeStyle;rounded=0;orthogonalLoop=1;jettySize=auto;html=1;entryX=0;entryY=0.5;entryDx=0;entryDy=0;exitX=0.5;exitY=0;exitDx=0;exitDy=0;exitPerimeter=0;" edge="1" parent="1" source="ywdPWlTBc8RAjWMrtMLr-25" target="ywdPWlTBc8RAjWMrtMLr-28">
          <mxGeometry relative="1" as="geometry">
            <Array as="points">
              <mxPoint x="975" y="1108" />
              <mxPoint x="980" y="1108" />
            </Array>
          </mxGeometry>
        </mxCell>
        <mxCell id="ywdPWlTBc8RAjWMrtMLr-23" style="edgeStyle=orthogonalEdgeStyle;rounded=0;orthogonalLoop=1;jettySize=auto;html=1;entryX=0;entryY=0.5;entryDx=0;entryDy=0;" edge="1" parent="1" source="ywdPWlTBc8RAjWMrtMLr-25" target="ywdPWlTBc8RAjWMrtMLr-29">
          <mxGeometry relative="1" as="geometry" />
        </mxCell>
        <mxCell id="ywdPWlTBc8RAjWMrtMLr-24" style="edgeStyle=orthogonalEdgeStyle;rounded=0;orthogonalLoop=1;jettySize=auto;html=1;entryX=0;entryY=0.5;entryDx=0;entryDy=0;" edge="1" parent="1" source="ywdPWlTBc8RAjWMrtMLr-25" target="ywdPWlTBc8RAjWMrtMLr-32">
          <mxGeometry relative="1" as="geometry" />
        </mxCell>
        <mxCell id="ywdPWlTBc8RAjWMrtMLr-25" value="Psicólogo" style="shape=umlActor;verticalLabelPosition=bottom;verticalAlign=top;html=1;outlineConnect=0;" vertex="1" parent="1">
          <mxGeometry x="960" y="1245" width="30" height="60" as="geometry" />
        </mxCell>
        <mxCell id="ywdPWlTBc8RAjWMrtMLr-26" value="Sistema HelpPsico" style="text;html=1;align=center;verticalAlign=middle;whiteSpace=wrap;rounded=0;" vertex="1" parent="1">
          <mxGeometry x="1216" y="1035" width="110" height="30" as="geometry" />
        </mxCell>
        <mxCell id="ywdPWlTBc8RAjWMrtMLr-27" value="Se logar no sistema" style="ellipse;whiteSpace=wrap;html=1;" vertex="1" parent="1">
          <mxGeometry x="1100" y="1155" width="120" height="60" as="geometry" />
        </mxCell>
        <mxCell id="ywdPWlTBc8RAjWMrtMLr-28" value="Se deslogar do sistema" style="ellipse;whiteSpace=wrap;html=1;" vertex="1" parent="1">
          <mxGeometry x="1190" y="1077.5" width="120" height="60" as="geometry" />
        </mxCell>
        <mxCell id="ywdPWlTBc8RAjWMrtMLr-29" value="Visualizar pacientes que possuem vínculo" style="ellipse;whiteSpace=wrap;html=1;" vertex="1" parent="1">
          <mxGeometry x="1100" y="1245" width="120" height="60" as="geometry" />
        </mxCell>
        <mxCell id="ywdPWlTBc8RAjWMrtMLr-30" value="Gerenciar pacientes" style="ellipse;whiteSpace=wrap;html=1;" vertex="1" parent="1">
          <mxGeometry x="1334" y="1215" width="120" height="60" as="geometry" />
        </mxCell>
        <mxCell id="ywdPWlTBc8RAjWMrtMLr-31" value="&amp;lt;&amp;lt;extend&amp;gt;&amp;gt;" style="html=1;verticalAlign=bottom;labelBackgroundColor=none;endArrow=open;endFill=0;dashed=1;rounded=0;entryX=1;entryY=0.5;entryDx=0;entryDy=0;exitX=0;exitY=1;exitDx=0;exitDy=0;" edge="1" parent="1" source="ywdPWlTBc8RAjWMrtMLr-30" target="ywdPWlTBc8RAjWMrtMLr-29">
          <mxGeometry width="160" relative="1" as="geometry">
            <mxPoint x="1080" y="1305" as="sourcePoint" />
            <mxPoint x="1240" y="1305" as="targetPoint" />
          </mxGeometry>
        </mxCell>
        <mxCell id="ywdPWlTBc8RAjWMrtMLr-32" value="Ver perfil" style="ellipse;whiteSpace=wrap;html=1;" vertex="1" parent="1">
          <mxGeometry x="1086" y="1335" width="120" height="60" as="geometry" />
        </mxCell>
        <mxCell id="ywdPWlTBc8RAjWMrtMLr-33" value="Editar perfil" style="ellipse;whiteSpace=wrap;html=1;" vertex="1" parent="1">
          <mxGeometry x="1250" y="1440" width="120" height="60" as="geometry" />
        </mxCell>
        <mxCell id="ywdPWlTBc8RAjWMrtMLr-34" value="Excluir conta" style="ellipse;whiteSpace=wrap;html=1;" vertex="1" parent="1">
          <mxGeometry x="1350" y="1365" width="120" height="60" as="geometry" />
        </mxCell>
        <mxCell id="ywdPWlTBc8RAjWMrtMLr-35" value="&amp;lt;&amp;lt;extend&amp;gt;&amp;gt;" style="html=1;verticalAlign=bottom;labelBackgroundColor=none;endArrow=open;endFill=0;dashed=1;rounded=0;exitX=0;exitY=0.5;exitDx=0;exitDy=0;entryX=1;entryY=0.5;entryDx=0;entryDy=0;" edge="1" parent="1" source="ywdPWlTBc8RAjWMrtMLr-34" target="ywdPWlTBc8RAjWMrtMLr-32">
          <mxGeometry width="160" relative="1" as="geometry">
            <mxPoint x="1181.5" y="1602.5" as="sourcePoint" />
            <mxPoint x="1560" y="1495" as="targetPoint" />
          </mxGeometry>
        </mxCell>
        <mxCell id="ywdPWlTBc8RAjWMrtMLr-36" value="&amp;lt;&amp;lt;extend&amp;gt;&amp;gt;" style="html=1;verticalAlign=bottom;labelBackgroundColor=none;endArrow=open;endFill=0;dashed=1;rounded=0;exitX=0;exitY=0;exitDx=0;exitDy=0;entryX=1;entryY=1;entryDx=0;entryDy=0;" edge="1" parent="1" source="ywdPWlTBc8RAjWMrtMLr-33" target="ywdPWlTBc8RAjWMrtMLr-32">
          <mxGeometry width="160" relative="1" as="geometry">
            <mxPoint x="1235.5" y="1487.5" as="sourcePoint" />
            <mxPoint x="930" y="1635" as="targetPoint" />
          </mxGeometry>
        </mxCell>
        <mxCell id="ywdPWlTBc8RAjWMrtMLr-37" style="edgeStyle=orthogonalEdgeStyle;rounded=0;orthogonalLoop=1;jettySize=auto;html=1;exitX=0.5;exitY=1;exitDx=0;exitDy=0;entryX=0.564;entryY=0.969;entryDx=0;entryDy=0;entryPerimeter=0;" edge="1" parent="1" source="ywdPWlTBc8RAjWMrtMLr-30" target="ywdPWlTBc8RAjWMrtMLr-30">
          <mxGeometry relative="1" as="geometry" />
        </mxCell>
      </root>
    </mxGraphModel>
  </diagram>
</mxfile>
